<?xml version="1.0" encoding="UTF-8"?>
<svg width="55px" height="55px" viewBox="0 0 55 55" version="1.1" xmlns="http://www.w3.org/2000/svg" xmlns:xlink="http://www.w3.org/1999/xlink">
    <title>Combined Shape</title>
    <g id="Page-1" stroke="none" stroke-width="1" fill="none" fill-rule="evenodd">
        <g id="about" transform="translate(-1086.000000, -238.000000)" fill="#FFFFFF" fill-rule="nonzero">
            <g id="header" transform="translate(0.000000, 75.500000)">
                <path d="M1113.16939,163 C1128.08108,163 1140.16939,175.088312 1140.16939,190 C1140.16939,204.911688 1128.08108,217 1113.16939,217 C1098.2577,217 1086.16939,204.911688 1086.16939,190 C1086.16939,175.088312 1098.2577,163 1113.16939,163 Z M1113.16939,166.857143 C1100.38795,166.857143 1090.02654,177.218553 1090.02654,190 C1090.02654,202.781447 1100.38795,213.142857 1113.16939,213.142857 C1125.95084,213.142857 1136.31225,202.781447 1136.31225,190 C1136.31225,177.218553 1125.95084,166.857143 1113.16939,166.857143 Z M1116.2,184.24 L1116.2,202.852 L1111.088,202.852 L1111.088,184.24 L1116.2,184.24 Z M1116.2,177.148 L1116.2,181.36 L1111.088,181.36 L1111.088,177.148 L1116.2,177.148 Z" id="Combined-Shape"></path>
            </g>
        </g>
    </g>
</svg>