<?xml version="1.0" encoding="UTF-8"?>
<svg width="55px" height="54px" viewBox="0 0 55 54" version="1.1" xmlns="http://www.w3.org/2000/svg" xmlns:xlink="http://www.w3.org/1999/xlink">
    <title>Combined Shape</title>
    <g id="Page-1" stroke="none" stroke-width="1" fill="none" fill-rule="evenodd">
        <g id="favorites-(not-logged-in)" transform="translate(-1086.000000, -240.000000)" fill="#FFFFFF" fill-rule="nonzero">
            <g id="header" transform="translate(0.000000, 77.000000)">
                <path d="M1113.16939,163 C1128.08108,163 1140.16939,175.088312 1140.16939,190 C1140.16939,204.911688 1128.08108,217 1113.16939,217 C1098.2577,217 1086.16939,204.911688 1086.16939,190 C1086.16939,175.088312 1098.2577,163 1113.16939,163 Z M1113.16939,166.857143 C1100.38795,166.857143 1090.02654,177.218553 1090.02654,190 C1090.02654,202.781447 1100.38795,213.142857 1113.16939,213.142857 C1125.95084,213.142857 1136.31225,202.781447 1136.31225,190 C1136.31225,177.218553 1125.95084,166.857143 1113.16939,166.857143 Z M1119.13827,179.352366 C1124.79769,179.352366 1129.91654,185.817819 1124.12182,193.981584 C1120.97218,198.415175 1113.05842,204.266802 1113.05418,204.269828 C1113.05418,204.269828 1105.13468,198.415175 1101.98504,193.981584 C1096.1894,185.817213 1101.30825,179.351458 1106.96889,179.352366 C1109.10578,179.352669 1111.32076,180.274013 1113.05388,182.373976 C1114.787,180.274013 1117.00077,179.352366 1119.13827,179.352366 Z M1117.92762,182.873658 C1116.4187,182.873658 1114.99912,184.192144 1113.92951,185.473159 L1113.92951,185.473159 L1112.9805,186.609704 L1112.03149,185.473159 C1110.96188,184.192387 1109.54181,182.873658 1108.03215,182.873658 C1106.2178,182.87343 1104.54351,183.310026 1103.71804,184.88898 C1102.65853,186.916424 1103.08798,190.070172 1104.98305,192.709059 C1106.90446,195.382239 1111.24959,198.82933 1112.9805,200.152178 C1114.70994,198.831032 1119.04965,195.389292 1120.97647,192.708816 C1122.87179,190.070416 1123.80207,186.916424 1122.74231,184.88898 C1121.91709,183.309783 1119.74147,182.873658 1117.92762,182.873658 Z" id="Combined-Shape"></path>
            </g>
        </g>
    </g>
</svg>