<?xml version="1.0" encoding="UTF-8"?>
<svg width="55px" height="54px" viewBox="0 0 55 54" version="1.1" xmlns="http://www.w3.org/2000/svg" xmlns:xlink="http://www.w3.org/1999/xlink">
    <title>Combined Shape</title>
    <g id="Page-1" stroke="none" stroke-width="1" fill="none" fill-rule="evenodd">
        <g id="home-copy-3" transform="translate(-1086.000000, -240.000000)" fill="#FFFFFF" fill-rule="nonzero">
            <g id="header" transform="translate(0.000000, 77.000000)">
                <path d="M1113.16939,163 C1128.08108,163 1140.16939,175.088312 1140.16939,190 C1140.16939,204.911688 1128.08108,217 1113.16939,217 C1098.2577,217 1086.16939,204.911688 1086.16939,190 C1086.16939,175.088312 1098.2577,163 1113.16939,163 Z M1113.16939,166.857143 C1100.38795,166.857143 1090.02654,177.218553 1090.02654,190 C1090.02654,202.781447 1100.38795,213.142857 1113.16939,213.142857 C1125.95084,213.142857 1136.31225,202.781447 1136.31225,190 C1136.31225,177.218553 1125.95084,166.857143 1113.16939,166.857143 Z M1113.23886,177.394254 C1113.56882,177.40134 1113.89973,177.492946 1114.19727,177.674196 L1114.3431,177.772315 L1126.37379,186.676304 L1126.51783,186.793893 C1127.24834,187.450809 1127.37304,188.568012 1126.77667,189.373795 C1126.17638,190.18488 1125.06086,190.389459 1124.21715,189.869983 L1124.07918,189.77668 L1123.07201,189.03101 L1123.07292,200.481523 C1123.07292,200.649996 1123.05132,200.813423 1123.01073,200.969186 C1123.00146,201.004773 1122.99119,201.039986 1122.97996,201.074767 C1122.97577,201.087732 1122.9715,201.100475 1122.96711,201.113158 C1122.95518,201.147589 1122.94224,201.181752 1122.92836,201.215436 C1122.91811,201.240321 1122.90758,201.264444 1122.89657,201.288304 C1122.88898,201.304769 1122.88104,201.321371 1122.87286,201.33784 C1122.83705,201.409986 1122.79687,201.479541 1122.75266,201.546189 C1122.74274,201.561155 1122.73254,201.576077 1122.72213,201.590847 L1122.70097,201.620305 L1122.70097,201.620305 L1122.67935,201.649235 C1122.66434,201.668932 1122.64906,201.688214 1122.63342,201.707192 L1122.58372,201.765135 L1122.58372,201.765135 C1122.5689,201.781742 1122.55389,201.797988 1122.53862,201.813971 C1122.52536,201.827837 1122.51196,201.841448 1122.49836,201.854859 L1122.45917,201.892427 L1122.45917,201.892427 L1122.41919,201.928678 C1122.41221,201.934828 1122.40524,201.940886 1122.39823,201.946895 C1122.37375,201.96786 1122.34867,201.988275 1122.32309,202.008061 C1122.30424,202.022641 1122.28488,202.037049 1122.26524,202.051098 L1122.20891,202.08991 L1122.20891,202.08991 C1122.1897,202.102654 1122.16999,202.115222 1122.15004,202.127438 C1122.12557,202.142423 1122.1006,202.156959 1122.07528,202.170942 L1122.03109,202.194597 L1122.03109,202.194597 C1122.00355,202.208881 1121.97557,202.222546 1121.94722,202.235544 C1121.92735,202.244652 1121.9076,202.253305 1121.88767,202.261633 L1121.85385,202.275397 L1121.85385,202.275397 L1121.81928,202.288694 C1121.79527,202.297658 1121.77154,202.305992 1121.74759,202.31387 C1121.72833,202.320211 1121.70869,202.326329 1121.68891,202.332139 C1121.66194,202.340062 1121.63486,202.347375 1121.60756,202.354107 C1121.57914,202.361117 1121.55021,202.367549 1121.52105,202.373322 C1121.50362,202.376772 1121.48623,202.379967 1121.46876,202.382927 C1121.43875,202.388012 1121.40838,202.392419 1121.37779,202.39611 C1121.36186,202.398031 1121.346,202.399745 1121.33008,202.401266 L1121.31432,202.402707 C1121.25832,202.407598 1121.20162,202.410094 1121.14435,202.410094 L1105.08389,202.410094 C1104.97963,202.410094 1104.87731,202.401822 1104.77753,202.385896 C1104.76026,202.383142 1104.74276,202.380101 1104.72534,202.376827 C1104.69473,202.371069 1104.66453,202.364624 1104.63459,202.357481 C1104.60878,202.35132 1104.5833,202.344677 1104.55803,202.337531 L1104.49158,202.317433 L1104.49158,202.317433 C1104.46982,202.310417 1104.44835,202.303067 1104.42705,202.295352 C1104.40176,202.286189 1104.37681,202.276554 1104.35212,202.266422 C1104.33453,202.259205 1104.31678,202.251606 1104.29916,202.24375 C1104.27069,202.231045 1104.24283,202.217798 1104.21534,202.203912 C1104.21217,202.202309 1104.20858,202.200484 1104.205,202.198648 L1104.1105,202.146788 C1104.10642,202.144397 1104.10235,202.141991 1104.09829,202.139571 C1104.07486,202.125611 1104.05211,202.111397 1104.02968,202.096728 C1104.01105,202.084554 1103.99218,202.071732 1103.97354,202.058589 L1103.92196,202.020915 L1103.92196,202.020915 C1103.89619,202.001433 1103.87085,201.981262 1103.84605,201.960479 L1103.81779,201.93634 L1103.81779,201.93634 C1103.79249,201.914305 1103.76759,201.891454 1103.74331,201.867971 L1103.70069,201.825456 L1103.70069,201.825456 C1103.68474,201.809039 1103.66938,201.792663 1103.6543,201.776024 C1103.63764,201.757632 1103.62134,201.738938 1103.60541,201.719932 C1103.5863,201.697162 1103.56736,201.673482 1103.54898,201.649356 C1103.53953,201.636948 1103.5304,201.624668 1103.52142,201.612276 C1103.50449,201.588924 1103.48811,201.565232 1103.47225,201.541163 C1103.45883,201.520802 1103.44573,201.50007 1103.43302,201.479077 C1103.42315,201.462789 1103.4134,201.446131 1103.40389,201.429317 L1103.38233,201.390117 L1103.38233,201.390117 L1103.36181,201.350682 C1103.35182,201.330935 1103.34196,201.310581 1103.33246,201.290032 C1103.32262,201.268749 1103.31322,201.247392 1103.30419,201.225837 L1103.27795,201.159742 L1103.27795,201.159742 C1103.26883,201.135484 1103.2601,201.110734 1103.25187,201.085759 C1103.24409,201.062163 1103.23672,201.038258 1103.22981,201.01416 L1103.21034,200.940781 L1103.21034,200.940781 L1103.19783,200.886116 L1103.19783,200.886116 L1103.18018,200.792008 L1103.18018,200.792008 C1103.17706,200.772702 1103.17423,200.753387 1103.17169,200.733981 L1103.16415,200.667257 L1103.16415,200.667257 L1103.1627,200.651498 C1103.15781,200.595491 1103.15532,200.538799 1103.15532,200.481523 L1103.15501,189.13201 L1102.286,189.77668 C1101.42986,190.410318 1100.22215,190.22994 1099.58851,189.373795 C1098.99215,188.568012 1099.11685,187.450809 1099.84736,186.793893 L1099.9914,186.676304 L1112.02209,177.772315 C1112.35513,177.525829 1112.74137,177.402521 1113.12632,177.394254 L1113.23886,177.394254 Z M1113.18201,181.710983 L1107.01201,186.27701 L1107.01201,198.55201 L1119.21501,198.55201 L1119.21501,186.17601 L1113.18201,181.710983 Z" id="Combined-Shape"></path>
            </g>
        </g>
    </g>
</svg>