<?xml version="1.0" encoding="UTF-8"?>
<svg width="143px" height="49px" viewBox="0 0 143 49" version="1.1" xmlns="http://www.w3.org/2000/svg" xmlns:xlink="http://www.w3.org/1999/xlink">
    <title>Group 3</title>
    <g id="Page-1" stroke="none" stroke-width="1" fill="none" fill-rule="evenodd">
        <g id="home-copy-3" transform="translate(-33.000000, -99.000000)" fill-rule="nonzero">
            <g id="Group-12" transform="translate(-0.687500, 77.000000)">
                <g id="Group-3" transform="translate(33.918108, 22.750000)">
                    <path d="M94.3839452,25 L100.819699,35.726257 L100.99847,35.726257 L100.819699,32.6424581 L100.819699,25 L103.814113,25 L103.814113,41 L100.640928,41 L93.8476324,29.6703911 L93.6688614,29.6703911 L93.8476324,32.7541899 L93.8476324,41 L90.8755653,41 L90.8755653,25 L94.3839452,25 Z M121.881738,25.0592411 L127.259958,40.8962763 L123.808264,40.8962763 L122.704525,37.357274 L117.446713,37.357274 L116.342974,40.8962763 L112.891281,40.8962763 L118.269501,25.0592411 L121.881738,25.0592411 Z M83.4102609,25.0592411 L88.7884807,40.8962763 L85.3367874,40.8962763 L84.2330482,37.357274 L78.9752363,37.357274 L77.8714972,40.8962763 L74.4198039,40.8962763 L79.7980237,25.0592411 L83.4102609,25.0592411 Z M60.3135509,25.0592411 L64.4074197,32.8008086 L64.6080996,32.8008086 L68.7019684,25.0592411 L71.7924379,25.0592411 L71.7924379,40.8962763 L68.7019684,40.8962763 L68.7019684,33.884628 L68.9026482,31.2303763 L68.7019684,31.2303763 L65.4308869,37.5342241 L63.5846324,37.5342241 L60.3135509,31.2303763 L60.1128711,31.2303763 L60.3135509,33.884628 L60.3135509,40.8962763 L57.2230813,40.8962763 L57.2230813,25.0592411 L60.3135509,25.0592411 Z M110.442482,25.0592411 L110.442482,40.8962763 L107.311877,40.8962763 L107.311877,25.0592411 L110.442482,25.0592411 Z M120.175959,28.9521436 L119.975279,28.9521436 L119.493648,30.8985949 L118.450113,34.2164095 L121.701126,34.2164095 L120.657591,30.8985949 L120.175959,28.9521436 Z M81.7044822,28.9521436 L81.5038023,28.9521436 L81.0221707,30.8985949 L79.9786355,34.2164095 L83.229649,34.2164095 L82.1861138,30.8985949 L81.7044822,28.9521436 Z M83.4102609,6.35653439 L88.7884807,22.1935695 L85.3367874,22.1935695 L84.2330482,18.6545672 L78.9752363,18.6545672 L77.8714972,22.1935695 L74.4198039,22.1935695 L79.7980237,6.35653439 L83.4102609,6.35653439 Z M96.7881724,6.35653439 C97.5641345,6.35653439 98.2598246,6.48556052 98.8752428,6.74361277 C99.490661,7.00166501 100.009084,7.3592517 100.430512,7.81637283 C100.851939,8.27349395 101.173027,8.81540367 101.393775,9.44210199 C101.614523,10.0688003 101.724897,10.7507955 101.724897,11.4880877 C101.724897,12.0041922 101.647969,12.4834321 101.494115,12.9258073 C101.34026,13.3681826 101.132891,13.7773798 100.872007,14.1533987 C100.611123,14.5294177 100.306759,14.8611992 99.9589139,15.1487431 C99.6806379,15.3787783 99.3852371,15.5781421 99.0727117,15.7468345 L98.8351068,15.867603 L98.8351068,16.0666718 L102.58782,21.9723819 L102.58782,22.1935695 L99.0157187,22.1935695 L95.3834135,16.4869284 L94.5004222,16.4869284 L94.5004222,22.1935695 L91.3698166,22.1935695 L91.3698166,6.35653439 L96.7881724,6.35653439 Z M106.568921,6.35653439 L109.298167,15.0713275 L109.840003,17.2832039 L110.040683,17.2832039 L110.622654,15.0713275 L113.472308,6.35653439 L116.843729,6.35653439 L111.585918,22.1935695 L108.294768,22.1935695 L103.1975,6.35653439 L106.568921,6.35653439 Z M129.098937,6.35653439 L129.098937,9.63011148 L122.757454,9.63011148 L122.757454,12.6382634 L128.456762,12.6382634 L128.456762,15.9118405 L122.757454,15.9118405 L122.757454,18.9199924 L129.098937,18.9199924 L129.098937,22.1935695 L119.626848,22.1935695 L119.626848,6.35653439 L129.098937,6.35653439 Z M135.023582,6.35653439 L135.023582,18.9199924 L141.043977,18.9199924 L141.043977,22.1935695 L131.892976,22.1935695 L131.892976,6.35653439 L135.023582,6.35653439 Z M60.3135509,6.31343284 L64.4074197,14.0550003 L64.6080996,14.0550003 L68.7019684,6.31343284 L71.7924379,6.31343284 L71.7924379,22.1504679 L68.7019684,22.1504679 L68.7019684,15.1388197 L68.9026482,12.484568 L68.7019684,12.484568 L65.4308869,18.7884158 L63.5846324,18.7884158 L60.3135509,12.484568 L60.1128711,12.484568 L60.3135509,15.1388197 L60.3135509,22.1504679 L57.2230813,22.1504679 L57.2230813,6.31343284 L60.3135509,6.31343284 Z M81.7044822,10.2494369 L81.5038023,10.2494369 L81.0221707,12.1958881 L79.9786355,15.5137027 L83.229649,15.5137027 L82.1861138,12.1958881 L81.7044822,10.2494369 Z M96.7881724,9.54163643 L94.5004222,9.54163643 L94.5004222,13.3018263 L96.7881724,13.3018263 C97.350076,13.3018263 97.7915716,13.1211898 98.1126594,12.7599166 C98.4337471,12.3986435 98.594291,11.9525817 98.594291,11.4217314 C98.594291,10.890881 98.4437811,10.4448193 98.1427613,10.0835461 C97.8417416,9.722273 97.3902119,9.54163643 96.7881724,9.54163643 Z" id="Combined-Shape" fill="#FFFFFF"></path>
                    <g id="Group-2">
                        <g id="noun_Shield_3076609">
                            <polygon id="Rectangle" fill="#FFFFFF" points="47.3069199 6.35653439 50.7753201 6.35653439 50.7753201 40.8962763 47.3069199 40.8962763"></polygon>
                            <path d="M29.6651048,5.70767195 C22.9196743,3.97807439 20.0658384,0.0864798781 20.0658384,0.0864798781 C20.0658384,0.0864798781 17.2120024,3.97807439 10.4665719,5.70767195 C5.62369874,6.91839024 0.00250666313,6.48599085 0.00250666313,6.48599085 C0.00250666313,6.48599085 0.348426175,25.8574835 4.84537983,33.9865921 C10.0341725,43.1534591 20.0658384,47.477453 20.0658384,47.477453 C20.0658384,47.477453 30.0975042,43.1534591 35.2862969,33.9001122 C39.7832506,25.8574835 40.1291701,6.39951098 40.1291701,6.39951098 C40.1291701,6.39951098 34.507978,6.91839024 29.6651048,5.70767195 Z" id="Shape" fill="#FFFFFF"></path>
                            <path d="M28.343406,8.47818425 C22.6319467,7.01370748 20.21556,3.71863476 20.21556,3.71863476 C20.21556,3.71863476 17.7991733,7.01370748 12.0877139,8.47818425 C7.98717898,9.50331799 3.22762949,9.13719879 3.22762949,9.13719879 C3.22762949,9.13719879 3.52052484,25.5393386 7.32816444,32.4223794 C11.7215947,40.1841063 20.21556,44.5288086 20.21556,44.5288086 C20.21556,44.5288086 28.7095252,40.1841063 33.1029555,32.3491556 C36.9105951,25.5393386 37.2034905,9.06397496 37.2034905,9.06397496 C37.2034905,9.06397496 32.443941,9.50331799 28.343406,8.47818425 Z" id="Shape" fill="#2D347E"></path>
                        </g>
                        <g id="noun_star-shield_1285247" transform="translate(7.312094, 11.481672)">
                            <g id="Group" transform="translate(0.332270, 0.000000)">
                                <g transform="translate(0.247476, 0.465217)" id="Path">
                                    <path d="M12.1954503,23.9887499 C5.59784319,23.9887499 0.249425838,18.6403326 0.249425838,12.0427255 C0.249425838,5.44511836 5.59784319,0.0967010031 12.1954503,0.0967010031 C18.7930574,0.0967010031 24.1414748,5.44511836 24.1414748,12.0427255 C24.1414748,18.6403326 18.7930574,23.9887499 12.1954503,23.9887499 Z" fill="#FFFFFF"></path>
                                    <polygon fill="#DD3300" points="12.2523134 3.44145387 10.359134 9.2317571 4.07215367 9.2317571 9.15372698 12.9189722 7.25332689 18.7324992 12.2040249 15.1323731 17.165554 18.7324992 15.2881699 12.8899425 20.3187469 9.2317571 14.1129996 9.2317571"></polygon>
                                </g>
                            </g>
                        </g>
                    </g>
                </g>
            </g>
        </g>
    </g>
</svg>