<?xml version="1.0" encoding="UTF-8"?>
<svg width="55px" height="54px" viewBox="0 0 55 54" version="1.1" xmlns="http://www.w3.org/2000/svg" xmlns:xlink="http://www.w3.org/1999/xlink">
    <title>Combined Shape</title>
    <g id="Page-1" stroke="none" stroke-width="1" fill="none" fill-rule="evenodd">
        <g id="home-copy-4" transform="translate(-1086.000000, -240.000000)" fill="#FFFFFF" fill-rule="nonzero">
            <g id="header" transform="translate(0.000000, 77.000000)">
                <path d="M1113.16939,163 C1128.08108,163 1140.16939,175.088312 1140.16939,190 C1140.16939,204.911688 1128.08108,217 1113.16939,217 C1098.2577,217 1086.16939,204.911688 1086.16939,190 C1086.16939,175.088312 1098.2577,163 1113.16939,163 Z M1113.16939,166.857143 C1100.38795,166.857143 1090.02654,177.218553 1090.02654,190 C1090.02654,202.781447 1100.38795,213.142857 1113.16939,213.142857 C1125.95084,213.142857 1136.31225,202.781447 1136.31225,190 C1136.31225,177.218553 1125.95084,166.857143 1113.16939,166.857143 Z M1125.08527,180.041199 C1125.34546,180.041199 1125.5936,180.092721 1125.82007,180.18612 L1125.86567,180.206323 C1125.8969,180.219466 1125.92711,180.233821 1125.95687,180.248925 C1125.96716,180.254969 1125.97761,180.260402 1125.988,180.265927 C1126.01931,180.281705 1126.04992,180.299049 1126.08,180.317192 C1126.09216,180.325499 1126.10461,180.333214 1126.11696,180.341067 C1126.39711,180.517826 1126.62815,180.765612 1126.78557,181.058818 C1126.787,181.064458 1126.78983,181.069789 1126.79264,181.075135 C1126.93445,181.342344 1127.01384,181.646785 1127.01384,181.96977 L1127.01284,182.026199 L1127.0135,197.992796 L1127.01384,198.03023 L1127.01384,198.03023 C1127.01384,198.530486 1126.82338,198.986255 1126.511,199.328975 L1126.50939,199.329 C1126.50206,199.336999 1126.5001,199.339117 1126.49814,199.341231 L1126.511,199.328975 C1126.4471,199.399083 1126.3781,199.46446 1126.30458,199.52452 L1126.29053,199.534773 L1126.29053,199.534773 L1126.27731,199.545141 C1126.24972,199.568149 1126.22032,199.590012 1126.19029,199.611042 C1126.18477,199.613799 1126.1797,199.617317 1126.17462,199.620812 C1126.14201,199.644283 1126.10797,199.666114 1126.07321,199.686883 L1126.0444,199.702848 L1126.0444,199.702848 C1126.01642,199.719858 1125.98701,199.735771 1125.95715,199.75093 C1125.94351,199.757065 1125.92981,199.763829 1125.91603,199.770434 C1125.88286,199.787052 1125.84904,199.802044 1125.81473,199.816075 C1125.80427,199.819711 1125.79395,199.823833 1125.7836,199.827869 C1125.75245,199.840598 1125.72067,199.851999 1125.68852,199.862577 L1125.63497,199.878858 L1125.63497,199.878858 C1125.60462,199.888333 1125.57423,199.896546 1125.54354,199.904024 L1125.49622,199.914579 L1125.49622,199.914579 C1125.46284,199.922181 1125.42846,199.928684 1125.39377,199.934261 C1125.37756,199.936617 1125.362,199.938932 1125.34637,199.941061 C1125.32166,199.944626 1125.29641,199.947546 1125.27101,199.949973 L1125.25252,199.951512 C1125.2005,199.956024 1125.14788,199.958471 1125.09476,199.95877 L1101.25351,199.958801 C1101.17282,199.958801 1101.09328,199.953845 1101.01519,199.944221 C1100.94314,199.935337 1100.87244,199.922508 1100.8032,199.905945 C1100.78182,199.900829 1100.76068,199.895386 1100.73968,199.889597 C1100.71407,199.882538 1100.68854,199.87492 1100.66324,199.866794 C1100.63701,199.858367 1100.61119,199.849457 1100.58563,199.840022 C1100.56479,199.832328 1100.54419,199.824313 1100.52377,199.815958 C1100.51023,199.81042 1100.49652,199.804627 1100.4829,199.798682 C1100.45299,199.785626 1100.42387,199.772025 1100.39515,199.757728 C1100.37207,199.746239 1100.34922,199.734279 1100.32664,199.72188 C1100.30196,199.708328 1100.27767,199.694291 1100.25373,199.679749 C1100.24563,199.674829 1100.23758,199.669855 1100.22956,199.664824 C1100.19671,199.644204 1100.16448,199.62259 1100.13296,199.60005 L1100.10097,199.576675 L1100.10097,199.576675 C1100.07838,199.559806 1100.05649,199.542709 1100.03498,199.525156 C1100.0133,199.507463 1099.9919,199.489212 1099.97091,199.47051 C1099.95569,199.456943 1099.94082,199.443266 1099.92617,199.42936 L1099.85822,199.361605 L1099.85822,199.361605 L1099.82824,199.329479 L1099.82824,199.329479 C1099.81207,199.311747 1099.79618,199.293663 1099.78063,199.275284 C1099.76005,199.250972 1099.73989,199.225924 1099.72036,199.200373 C1099.70877,199.185194 1099.69766,199.170215 1099.68677,199.155071 C1099.67385,199.137126 1099.66089,199.118432 1099.64826,199.099503 C1099.63306,199.076724 1099.6186,199.054021 1099.60459,199.031003 L1099.58633,199.000332 L1099.58633,199.000332 L1099.56851,198.969107 C1099.55717,198.948802 1099.54612,198.928147 1099.53544,198.907271 L1099.50637,198.847933 L1099.50637,198.847933 C1099.49357,198.820678 1099.4811,198.792339 1099.46929,198.763653 L1099.45085,198.717113 L1099.45085,198.717113 L1099.42313,198.639412 L1099.42313,198.639412 L1099.39689,198.553902 L1099.39689,198.553902 C1099.39181,198.535881 1099.38682,198.517118 1099.38212,198.498244 C1099.37648,198.475582 1099.37135,198.453286 1099.3666,198.430847 C1099.36017,198.400425 1099.35438,198.369303 1099.34935,198.337928 L1099.34309,198.295889 L1099.34309,198.295889 C1099.33946,198.26963 1099.33634,198.242878 1099.33377,198.215964 L1099.33232,198.200074 C1099.32743,198.14411 1099.32494,198.087461 1099.32494,198.03023 L1099.32494,181.96977 C1099.32494,181.898003 1099.32886,181.827152 1099.3365,181.757418 C1099.34426,181.686502 1099.35589,181.616632 1099.37117,181.548135 C1099.3732,181.53901 1099.37534,181.529728 1099.37755,181.520472 C1099.38355,181.495339 1099.39001,181.470527 1099.39694,181.445915 C1099.40338,181.423042 1099.41028,181.40016 1099.4176,181.377462 C1099.44361,181.296812 1099.47473,181.218589 1099.51061,181.143068 L1099.525,181.113454 L1099.525,181.113454 C1099.54119,181.080835 1099.55826,181.048772 1099.57619,181.017264 C1099.58142,181.008068 1099.5866,180.999145 1099.59184,180.990268 C1099.6088,180.961558 1099.62664,180.933075 1099.64519,180.905104 C1099.65512,180.890139 1099.66532,180.875216 1099.67572,180.860447 C1099.69043,180.83957 1099.70543,180.819149 1099.72081,180.799038 C1099.73507,180.780403 1099.7496,180.762115 1099.76444,180.744101 C1099.7804,180.724719 1099.79708,180.705268 1099.81413,180.686159 C1099.82896,180.669551 1099.84396,180.653306 1099.85924,180.637322 L1099.90048,180.595472 L1099.90048,180.595472 C1099.9261,180.570263 1099.95206,180.546078 1099.97867,180.522616 L1099.99011,180.51261 L1099.99011,180.51261 L1100.00159,180.502725 C1100.02547,180.482323 1100.04988,180.46248 1100.07477,180.443232 C1100.09362,180.428653 1100.11298,180.414244 1100.13262,180.400195 C1100.15139,180.386776 1100.17005,180.373918 1100.18895,180.361384 C1100.20976,180.34758 1100.23111,180.33401 1100.25274,180.320854 L1100.31463,180.284766 L1100.31463,180.284766 C1100.33694,180.272306 1100.35965,180.260213 1100.38262,180.248566 C1100.39976,180.239883 1100.41673,180.231595 1100.43384,180.223552 C1100.46407,180.209333 1100.49485,180.195827 1100.52604,180.183114 C1100.54326,180.176093 1100.56086,180.16922 1100.57858,180.162599 C1100.6068,180.152062 1100.63484,180.142329 1100.66316,180.133232 C1100.6833,180.126762 1100.70351,180.120637 1100.72386,180.114839 L1100.79425,180.096217 L1100.79425,180.096217 C1100.82144,180.089573 1100.84902,180.083474 1100.87681,180.077971 C1100.89456,180.074456 1100.91229,180.071205 1100.9301,180.068199 C1100.95979,180.063183 1100.98982,180.058833 1101.02007,180.055184 C1101.036,180.053263 1101.05186,180.051548 1101.06778,180.050027 L1101.08151,180.048764 C1101.13818,180.043756 1101.19555,180.041199 1101.25351,180.041199 L1125.08527,180.041199 Z M1105.39423,195.924486 L1103.18275,195.924486 L1103.18275,198.135973 L1105.39423,198.135973 L1105.39423,195.924486 Z M1109.8172,195.924486 L1107.60572,195.924486 L1107.60572,198.135973 L1109.8172,198.135973 L1109.8172,195.924486 Z M1114.24018,195.924486 L1112.02869,195.924486 L1112.02869,198.135973 L1114.24018,198.135973 L1114.24018,195.924486 Z M1118.66315,195.924486 L1116.45166,195.924486 L1116.45166,198.135973 L1118.66315,198.135973 L1118.66315,195.924486 Z M1123.08612,195.924486 L1120.87464,195.924486 L1120.87464,198.135973 L1123.08612,198.135973 L1123.08612,195.924486 Z M1111.24084,185.898199 L1103.18284,185.898199 L1103.18284,194.101199 L1111.24084,194.101199 L1111.24084,185.898199 Z M1123.15584,185.898199 L1115.09884,185.898199 L1115.09884,194.101199 L1123.15584,194.101199 L1123.15584,185.898199 Z M1105.46415,181.864027 L1103.25266,181.864027 L1103.25266,184.075514 L1105.46415,184.075514 L1105.46415,181.864027 Z M1109.88712,181.864027 L1107.67563,181.864027 L1107.67563,184.075514 L1109.88712,184.075514 L1109.88712,181.864027 Z M1114.31009,181.864027 L1112.09861,181.864027 L1112.09861,184.075514 L1114.31009,184.075514 L1114.31009,181.864027 Z M1118.73307,181.864027 L1116.52158,181.864027 L1116.52158,184.075514 L1118.73307,184.075514 L1118.73307,181.864027 Z M1123.15604,181.864027 L1120.94455,181.864027 L1120.94455,184.075514 L1123.15584,184.075199 L1123.15511,181.96977 L1123.15684,181.944199 L1123.15604,181.864027 Z" id="Combined-Shape"></path>
            </g>
        </g>
    </g>
</svg>