<svg xmlns="http://www.w3.org/2000/svg" viewBox="0 0 212.15 130.47"><defs><style>.cls-1{fill:#2e3192;}.cls-2{fill:#be1e2d;}.cls-3{fill:#fbb040;}.cls-4{font-size:28.61px;fill:#414042;font-family:NHaasGroteskDSPro-75Bd, Neue Haas Grotesk Display Pro;}</style></defs><g id="Layer_2" data-name="Layer 2"><g id="Layer_1-2" data-name="Layer 1"><path class="cls-1" d="M0,0H32.46L44.33,42.69c1.77,6.14,5.59,22.24,5.59,22.24h.27S54,48.83,55.65,42.69L67.65,0h32.74V97.52H78.29V48.42c0-4,.41-19.5.41-19.5h-.27S75,43.51,73.93,47.06L59.88,97.52H40L26.05,47.19c-1.09-3.54-4.5-18.27-4.5-18.27h-.27s.41,15.68.41,19.64v49H0Z"/><path class="cls-2" d="M111.76,0h32.46l11.87,42.69c1.77,6.14,5.59,22.24,5.59,22.24H162s3.81-16.1,5.45-22.24L179.41,0h32.74V97.52h-22.1V48.42c0-4,.41-19.5.41-19.5h-.27s-3.41,14.59-4.5,18.14L171.64,97.52H151.73L137.81,47.19c-1.09-3.54-4.5-18.27-4.5-18.27H133s.41,15.68.41,19.64v49H111.76Z"/><rect class="cls-3" x="100.39" width="11.37" height="97.52"/><text class="cls-4" transform="translate(0 122.94)">MARVEL MANIA</text></g></g></svg>